<svg width="330" height="143" viewBox="0 0 330 143" fill="none" xmlns="http://www.w3.org/2000/svg">
<g filter="url(#filter0_d_369_3)">
<path d="M66.2422 50.0195H76.7539C76.543 53.4648 75.5938 56.5234 73.9062 59.1953C72.2422 61.8672 69.9102 63.9531 66.9102 65.4531C63.9336 66.9531 60.3477 67.7031 56.1523 67.7031C52.8711 67.7031 49.9297 67.1406 47.3281 66.0156C44.7266 64.8672 42.5 63.2266 40.6484 61.0938C38.8203 58.9609 37.4258 56.3828 36.4648 53.3594C35.5039 50.3359 35.0234 46.9492 35.0234 43.1992V39.6484C35.0234 35.8984 35.5156 32.5117 36.5 29.4883C37.5078 26.4414 38.9375 23.8516 40.7891 21.7188C42.6641 19.5859 44.9023 17.9453 47.5039 16.7969C50.1055 15.6484 53.0117 15.0742 56.2227 15.0742C60.4883 15.0742 64.0859 15.8477 67.0156 17.3945C69.9688 18.9414 72.2539 21.0742 73.8711 23.793C75.5117 26.5117 76.4961 29.6055 76.8242 33.0742H66.2773C66.1602 31.0117 65.75 29.2656 65.0469 27.8359C64.3438 26.3828 63.2773 25.293 61.8477 24.5664C60.4414 23.8164 58.5664 23.4414 56.2227 23.4414C54.4648 23.4414 52.9297 23.7695 51.6172 24.4258C50.3047 25.082 49.2031 26.0781 48.3125 27.4141C47.4219 28.75 46.7539 30.4375 46.3086 32.4766C45.8867 34.4922 45.6758 36.8594 45.6758 39.5781V43.1992C45.6758 45.8477 45.875 48.1797 46.2734 50.1953C46.6719 52.1875 47.2812 53.875 48.1016 55.2578C48.9453 56.6172 50.0234 57.6484 51.3359 58.3516C52.6719 59.0312 54.2773 59.3711 56.1523 59.3711C58.3555 59.3711 60.1719 59.0195 61.6016 58.3164C63.0312 57.6133 64.1211 56.5703 64.8711 55.1875C65.6445 53.8047 66.1016 52.082 66.2422 50.0195ZM103.578 58.4219V41.4766C103.578 40.2578 103.379 39.2148 102.98 38.3477C102.582 37.457 101.961 36.7656 101.117 36.2734C100.297 35.7812 99.2305 35.5352 97.918 35.5352C96.793 35.5352 95.8203 35.7344 95 36.1328C94.1797 36.5078 93.5469 37.0586 93.1016 37.7852C92.6562 38.4883 92.4336 39.3203 92.4336 40.2812H82.3086C82.3086 38.6641 82.6836 37.1289 83.4336 35.6758C84.1836 34.2227 85.2734 32.9453 86.7031 31.8438C88.1328 30.7188 89.832 29.8398 91.8008 29.207C93.793 28.5742 96.0195 28.2578 98.4805 28.2578C101.434 28.2578 104.059 28.75 106.355 29.7344C108.652 30.7188 110.457 32.1953 111.77 34.1641C113.105 36.1328 113.773 38.5938 113.773 41.5469V57.8242C113.773 59.9102 113.902 61.6211 114.16 62.957C114.418 64.2695 114.793 65.418 115.285 66.4023V67H105.055C104.562 65.9688 104.188 64.6797 103.93 63.1328C103.695 61.5625 103.578 59.9922 103.578 58.4219ZM104.914 43.832L104.984 49.5625H99.3242C97.9883 49.5625 96.8281 49.7148 95.8438 50.0195C94.8594 50.3242 94.0508 50.7578 93.418 51.3203C92.7852 51.8594 92.3164 52.4922 92.0117 53.2188C91.7305 53.9453 91.5898 54.7422 91.5898 55.6094C91.5898 56.4766 91.7891 57.2617 92.1875 57.9648C92.5859 58.6445 93.1602 59.1836 93.9102 59.582C94.6602 59.957 95.5391 60.1445 96.5469 60.1445C98.0703 60.1445 99.3945 59.8398 100.52 59.2305C101.645 58.6211 102.512 57.8711 103.121 56.9805C103.754 56.0898 104.082 55.2461 104.105 54.4492L106.777 58.7383C106.402 59.6992 105.887 60.6953 105.23 61.7266C104.598 62.7578 103.789 63.7305 102.805 64.6445C101.82 65.5352 100.637 66.2734 99.2539 66.8594C97.8711 67.4219 96.2305 67.7031 94.332 67.7031C91.918 67.7031 89.7266 67.2227 87.7578 66.2617C85.8125 65.2773 84.2656 63.9297 83.1172 62.2188C81.9922 60.4844 81.4297 58.5156 81.4297 56.3125C81.4297 54.3203 81.8047 52.5508 82.5547 51.0039C83.3047 49.457 84.4062 48.1562 85.8594 47.1016C87.3359 46.0234 89.1758 45.2148 91.3789 44.6758C93.582 44.1133 96.1367 43.832 99.043 43.832H104.914ZM131.492 37.082V67H121.367V28.9609H130.859L131.492 37.082ZM130.016 46.6445H127.273C127.273 43.832 127.637 41.3008 128.363 39.0508C129.09 36.7773 130.109 34.8438 131.422 33.25C132.734 31.6328 134.293 30.4023 136.098 29.5586C137.926 28.6914 139.965 28.2578 142.215 28.2578C143.996 28.2578 145.625 28.5156 147.102 29.0312C148.578 29.5469 149.844 30.3672 150.898 31.4922C151.977 32.6172 152.797 34.1055 153.359 35.957C153.945 37.8086 154.238 40.0703 154.238 42.7422V67H144.043V42.707C144.043 41.0195 143.809 39.707 143.34 38.7695C142.871 37.832 142.18 37.1758 141.266 36.8008C140.375 36.4023 139.273 36.2031 137.961 36.2031C136.602 36.2031 135.418 36.4727 134.41 37.0117C133.426 37.5508 132.605 38.3008 131.949 39.2617C131.316 40.1992 130.836 41.3008 130.508 42.5664C130.18 43.832 130.016 45.1914 130.016 46.6445ZM180.57 28.9609V36.1328H158.422V28.9609H180.57ZM163.906 19.5742H174.031V55.5391C174.031 56.6406 174.172 57.4844 174.453 58.0703C174.758 58.6562 175.203 59.0664 175.789 59.3008C176.375 59.5117 177.113 59.6172 178.004 59.6172C178.637 59.6172 179.199 59.5938 179.691 59.5469C180.207 59.4766 180.641 59.4062 180.992 59.3359L181.027 66.7891C180.16 67.0703 179.223 67.293 178.215 67.457C177.207 67.6211 176.094 67.7031 174.875 67.7031C172.648 67.7031 170.703 67.3398 169.039 66.6133C167.398 65.8633 166.133 64.668 165.242 63.0273C164.352 61.3867 163.906 59.2305 163.906 56.5586V19.5742ZM197.023 28.9609V67H186.863V28.9609H197.023ZM186.23 19.0469C186.23 17.5703 186.746 16.3516 187.777 15.3906C188.809 14.4297 190.191 13.9492 191.926 13.9492C193.637 13.9492 195.008 14.4297 196.039 15.3906C197.094 16.3516 197.621 17.5703 197.621 19.0469C197.621 20.5234 197.094 21.7422 196.039 22.7031C195.008 23.6641 193.637 24.1445 191.926 24.1445C190.191 24.1445 188.809 23.6641 187.777 22.7031C186.746 21.7422 186.23 20.5234 186.23 19.0469ZM215.305 37.082V67H205.18V28.9609H214.672L215.305 37.082ZM213.828 46.6445H211.086C211.086 43.832 211.449 41.3008 212.176 39.0508C212.902 36.7773 213.922 34.8438 215.234 33.25C216.547 31.6328 218.105 30.4023 219.91 29.5586C221.738 28.6914 223.777 28.2578 226.027 28.2578C227.809 28.2578 229.438 28.5156 230.914 29.0312C232.391 29.5469 233.656 30.3672 234.711 31.4922C235.789 32.6172 236.609 34.1055 237.172 35.957C237.758 37.8086 238.051 40.0703 238.051 42.7422V67H227.855V42.707C227.855 41.0195 227.621 39.707 227.152 38.7695C226.684 37.832 225.992 37.1758 225.078 36.8008C224.188 36.4023 223.086 36.2031 221.773 36.2031C220.414 36.2031 219.23 36.4727 218.223 37.0117C217.238 37.5508 216.418 38.3008 215.762 39.2617C215.129 40.1992 214.648 41.3008 214.32 42.5664C213.992 43.832 213.828 45.1914 213.828 46.6445ZM266.281 58.4219V41.4766C266.281 40.2578 266.082 39.2148 265.684 38.3477C265.285 37.457 264.664 36.7656 263.82 36.2734C263 35.7812 261.934 35.5352 260.621 35.5352C259.496 35.5352 258.523 35.7344 257.703 36.1328C256.883 36.5078 256.25 37.0586 255.805 37.7852C255.359 38.4883 255.137 39.3203 255.137 40.2812H245.012C245.012 38.6641 245.387 37.1289 246.137 35.6758C246.887 34.2227 247.977 32.9453 249.406 31.8438C250.836 30.7188 252.535 29.8398 254.504 29.207C256.496 28.5742 258.723 28.2578 261.184 28.2578C264.137 28.2578 266.762 28.75 269.059 29.7344C271.355 30.7188 273.16 32.1953 274.473 34.1641C275.809 36.1328 276.477 38.5938 276.477 41.5469V57.8242C276.477 59.9102 276.605 61.6211 276.863 62.957C277.121 64.2695 277.496 65.418 277.988 66.4023V67H267.758C267.266 65.9688 266.891 64.6797 266.633 63.1328C266.398 61.5625 266.281 59.9922 266.281 58.4219ZM267.617 43.832L267.688 49.5625H262.027C260.691 49.5625 259.531 49.7148 258.547 50.0195C257.562 50.3242 256.754 50.7578 256.121 51.3203C255.488 51.8594 255.02 52.4922 254.715 53.2188C254.434 53.9453 254.293 54.7422 254.293 55.6094C254.293 56.4766 254.492 57.2617 254.891 57.9648C255.289 58.6445 255.863 59.1836 256.613 59.582C257.363 59.957 258.242 60.1445 259.25 60.1445C260.773 60.1445 262.098 59.8398 263.223 59.2305C264.348 58.6211 265.215 57.8711 265.824 56.9805C266.457 56.0898 266.785 55.2461 266.809 54.4492L269.48 58.7383C269.105 59.6992 268.59 60.6953 267.934 61.7266C267.301 62.7578 266.492 63.7305 265.508 64.6445C264.523 65.5352 263.34 66.2734 261.957 66.8594C260.574 67.4219 258.934 67.7031 257.035 67.7031C254.621 67.7031 252.43 67.2227 250.461 66.2617C248.516 65.2773 246.969 63.9297 245.82 62.2188C244.695 60.4844 244.133 58.5156 244.133 56.3125C244.133 54.3203 244.508 52.5508 245.258 51.0039C246.008 49.457 247.109 48.1562 248.562 47.1016C250.039 46.0234 251.879 45.2148 254.082 44.6758C256.285 44.1133 258.84 43.832 261.746 43.832H267.617Z" fill="white"/>
</g>
<path d="M118.32 121.712C117.381 121.712 116.208 121.627 114.8 121.456C113.435 121.328 111.984 121.072 110.448 120.688C108.912 120.347 107.483 119.877 106.16 119.28C104.837 118.683 103.749 117.936 102.896 117.04C102.043 116.144 101.616 115.077 101.616 113.84C101.616 112.091 102.128 110.597 103.152 109.36C104.176 108.123 105.477 107.12 107.056 106.352C108.677 105.584 110.341 105.008 112.048 104.624C113.797 104.197 115.376 103.941 116.784 103.856C117.765 102.021 118.875 100.016 120.112 97.84C121.349 95.6213 122.651 93.4667 124.016 91.376C125.424 89.2853 126.811 87.5147 128.176 86.064C128.773 85.424 129.435 85.0187 130.16 84.848C130.928 84.6347 131.739 84.528 132.592 84.528C132.891 84.528 133.211 84.592 133.552 84.72C133.893 84.8053 134.085 85.04 134.128 85.424C134.043 85.808 133.787 86.2133 133.36 86.64C132.976 87.0667 132.656 87.408 132.4 87.664C130.437 89.84 128.411 92.3573 126.32 95.216C124.229 98.0747 122.288 100.955 120.496 103.856C123.355 103.899 126.299 104.112 129.328 104.496C132.4 104.88 135.387 105.52 138.288 106.416C141.189 107.269 143.835 108.507 146.224 110.128C146.779 109.531 147.269 108.848 147.696 108.08C148.123 107.312 148.336 106.501 148.336 105.648C148.336 104.411 147.888 103.344 146.992 102.448C146.096 101.552 144.944 100.827 143.536 100.272C142.128 99.6747 140.613 99.2053 138.992 98.864C137.413 98.5227 135.899 98.288 134.448 98.16C133.04 98.032 131.888 97.968 130.992 97.968C130.736 97.968 130.331 97.9893 129.776 98.032C129.264 98.032 128.795 97.968 128.368 97.84C127.941 97.712 127.728 97.4347 127.728 97.008C127.728 96.3253 128.027 95.8773 128.624 95.664C129.264 95.408 129.84 95.2373 130.352 95.152C132.357 94.768 134.384 94.448 136.432 94.192C138.48 93.8933 140.485 93.4453 142.448 92.848C144.411 92.208 146.224 91.2267 147.888 89.904C148.229 89.648 148.592 89.328 148.976 88.944C149.403 88.56 149.616 88.1547 149.616 87.728C149.616 87.0027 149.061 86.4053 147.952 85.936C146.885 85.424 145.52 85.0187 143.856 84.72C142.192 84.4213 140.464 84.208 138.672 84.08C136.923 83.9093 135.344 83.8027 133.936 83.76C132.528 83.7173 131.547 83.696 130.992 83.696C127.365 83.696 123.973 83.952 120.816 84.464C117.701 84.976 114.373 85.68 110.832 86.576C110.448 86.6613 109.851 86.8533 109.04 87.152C108.229 87.408 107.44 87.6427 106.672 87.856C105.947 88.0693 105.456 88.176 105.2 88.176C104.901 88.176 104.645 88.112 104.432 87.984C104.219 87.8133 104.112 87.5787 104.112 87.28C104.112 86.384 104.603 85.616 105.584 84.976C106.608 84.2933 107.931 83.7387 109.552 83.312C111.173 82.8427 112.944 82.48 114.864 82.224C116.784 81.968 118.661 81.776 120.496 81.648C122.373 81.4773 124.037 81.3707 125.488 81.328C126.939 81.2853 127.984 81.264 128.624 81.264C129.392 81.264 130.501 81.3067 131.952 81.392C133.445 81.4347 135.109 81.5413 136.944 81.712C138.821 81.8827 140.699 82.1387 142.576 82.48C144.496 82.8213 146.267 83.248 147.888 83.76C149.509 84.272 150.811 84.912 151.792 85.68C152.773 86.4053 153.264 87.28 153.264 88.304C153.264 89.2853 152.837 90.1813 151.984 90.992C151.173 91.8027 150.085 92.5493 148.72 93.232C147.397 93.872 145.989 94.4267 144.496 94.896C143.003 95.3653 141.595 95.7493 140.272 96.048C138.949 96.304 137.861 96.4747 137.008 96.56C138.459 96.688 140.08 96.9867 141.872 97.456C143.664 97.8827 145.392 98.5013 147.056 99.312C148.72 100.08 150.085 101.019 151.152 102.128C152.219 103.237 152.752 104.496 152.752 105.904C152.752 107.227 152.347 108.443 151.536 109.552C150.768 110.661 149.936 111.643 149.04 112.496C149.381 112.837 149.787 113.413 150.256 114.224C150.768 115.035 151.024 115.696 151.024 116.208C151.024 116.507 150.96 116.763 150.832 116.976C150.747 117.189 150.619 117.296 150.448 117.296C150.277 117.296 150.128 117.189 150 116.976C149.616 116.379 149.189 115.781 148.72 115.184C148.251 114.587 147.845 114.117 147.504 113.776C144.944 115.653 141.979 117.168 138.608 118.32C135.237 119.515 131.781 120.368 128.24 120.88C124.741 121.435 121.435 121.712 118.32 121.712ZM118.32 120.176C121.307 120.176 124.4 119.899 127.6 119.344C130.843 118.789 133.979 117.893 137.008 116.656C140.08 115.419 142.789 113.776 145.136 111.728C142.277 109.808 138.885 108.4 134.96 107.504C131.035 106.565 126.981 106.096 122.8 106.096C122.331 106.096 121.84 106.096 121.328 106.096C120.859 106.096 120.389 106.117 119.92 106.16L119.088 106.224C118.363 107.461 117.659 108.784 116.976 110.192C116.293 111.6 115.717 112.965 115.248 114.288C114.821 115.611 114.608 116.784 114.608 117.808C114.608 118.149 114.501 118.533 114.288 118.96C114.117 119.429 113.861 119.664 113.52 119.664C115.141 120.005 116.741 120.176 118.32 120.176ZM112.368 119.344C112.069 119.131 111.856 118.747 111.728 118.192C111.643 117.68 111.6 117.253 111.6 116.912C111.6 115.973 111.813 114.864 112.24 113.584C112.709 112.304 113.243 111.045 113.84 109.808C114.437 108.528 114.949 107.461 115.376 106.608C114.011 106.821 112.603 107.205 111.152 107.76C109.701 108.315 108.485 109.125 107.504 110.192C106.523 111.216 106.032 112.603 106.032 114.352C106.032 115.333 106.395 116.165 107.12 116.848C107.888 117.488 108.763 118 109.744 118.384C110.768 118.811 111.643 119.131 112.368 119.344ZM162.05 118.448C160.172 118.448 158.53 118 157.122 117.104C155.714 116.208 155.01 114.715 155.01 112.624C155.01 111.344 155.351 110.021 156.034 108.656C156.759 107.248 157.698 105.947 158.85 104.752C160.002 103.557 161.239 102.597 162.562 101.872C163.927 101.104 165.271 100.72 166.594 100.72C167.276 100.72 167.852 100.912 168.322 101.296C168.791 101.637 169.026 102.171 169.026 102.896C169.026 103.749 168.642 104.624 167.874 105.52C167.148 106.416 166.231 107.269 165.122 108.08C164.055 108.848 162.967 109.531 161.858 110.128C160.748 110.683 159.831 111.088 159.106 111.344C158.978 111.856 158.914 112.389 158.914 112.944C158.914 113.925 159.17 114.8 159.682 115.568C160.236 116.336 161.175 116.72 162.498 116.72C163.82 116.72 165.015 116.464 166.082 115.952C167.191 115.397 168.194 114.736 169.09 113.968C169.986 113.157 170.796 112.389 171.522 111.664C172.119 111.067 172.61 110.576 172.994 110.192C173.378 109.765 173.719 109.403 174.018 109.104C174.146 108.976 174.338 108.912 174.594 108.912C174.807 108.912 174.978 108.997 175.106 109.168C175.234 109.296 175.191 109.467 174.978 109.68C174.807 109.893 174.508 110.213 174.082 110.64C173.698 111.024 173.314 111.429 172.93 111.856C172.588 112.24 172.332 112.517 172.162 112.688C170.284 114.693 168.492 116.165 166.786 117.104C165.079 118 163.5 118.448 162.05 118.448ZM159.298 110.064C159.724 109.979 160.322 109.723 161.09 109.296C161.9 108.827 162.69 108.293 163.458 107.696C163.799 107.397 164.268 106.949 164.866 106.352C165.463 105.755 165.868 105.243 166.082 104.816C166.38 104.261 166.53 103.813 166.53 103.472C166.53 102.96 166.252 102.704 165.698 102.704C165.399 102.704 165.079 102.768 164.738 102.896C164.311 103.067 163.799 103.493 163.202 104.176C162.604 104.859 162.135 105.392 161.794 105.776C161.282 106.416 160.791 107.12 160.322 107.888C159.895 108.613 159.554 109.339 159.298 110.064ZM187.501 118.192C186.135 118.192 185.111 117.872 184.429 117.232C183.746 116.549 183.298 115.696 183.085 114.672C182.914 113.648 182.85 112.624 182.893 111.6C182.253 112.453 181.463 113.392 180.525 114.416C179.586 115.397 178.562 116.251 177.453 116.976C176.343 117.701 175.213 118.064 174.061 118.064C173.207 118.064 172.503 117.872 171.949 117.488C171.394 117.061 171.117 116.4 171.117 115.504C171.117 114.011 171.586 112.432 172.525 110.768C173.506 109.104 174.743 107.525 176.237 106.032C177.73 104.496 179.33 103.259 181.037 102.32C182.743 101.381 184.343 100.912 185.837 100.912C186.263 100.912 186.861 100.997 187.628 101.168C188.397 101.339 189.079 101.595 189.677 101.936C190.317 102.277 190.637 102.747 190.637 103.344C190.637 103.643 190.445 103.813 190.061 103.856C189.677 103.899 189.399 104.027 189.229 104.24C187.991 105.733 187.373 108.144 187.373 111.472C187.373 111.899 187.394 112.475 187.437 113.2C187.479 113.925 187.629 114.565 187.885 115.12C188.183 115.675 188.631 115.952 189.229 115.952C190.125 115.952 191.085 115.568 192.109 114.8C193.133 114.032 194.157 113.115 195.181 112.048C196.205 110.939 197.143 109.936 197.997 109.04C198.082 108.912 198.167 108.848 198.253 108.848C198.466 108.848 198.637 108.976 198.765 109.232C198.935 109.445 198.935 109.637 198.765 109.808C197.741 111.003 196.738 112.069 195.757 113.008C194.818 113.947 193.837 114.843 192.813 115.696C190.85 117.36 189.079 118.192 187.501 118.192ZM177.517 115.12C178.498 114.565 179.479 113.691 180.461 112.496C181.485 111.301 182.445 109.936 183.341 108.4C184.279 106.864 185.069 105.328 185.708 103.792C184.685 103.792 183.533 104.176 182.253 104.944C180.973 105.669 179.757 106.608 178.605 107.76C177.453 108.869 176.493 110.043 175.725 111.28C174.999 112.475 174.637 113.563 174.637 114.544C174.637 115.355 174.957 115.76 175.597 115.76C176.066 115.76 176.706 115.547 177.517 115.12ZM201.389 118.384C199.682 118.384 198.423 117.936 197.613 117.04C196.802 116.144 196.397 114.885 196.397 113.264C196.397 111.771 196.738 110.128 197.421 108.336C198.103 106.501 198.85 104.987 199.661 103.792C199.277 103.835 198.871 103.899 198.445 103.984C198.061 104.027 197.655 104.048 197.229 104.048C196.546 104.048 195.927 103.941 195.373 103.728C194.861 103.472 194.605 103.003 194.605 102.32C194.605 101.979 194.754 101.744 195.053 101.616C195.351 101.488 195.65 101.445 195.949 101.488L200.749 101.744C201.261 100.848 201.879 99.8027 202.605 98.608C203.373 97.3707 204.205 96.176 205.101 95.024C206.039 93.872 207.042 92.9333 208.109 92.208C209.175 91.44 210.285 91.056 211.437 91.056C211.693 91.056 212.034 91.0987 212.461 91.184C212.93 91.2267 213.229 91.44 213.357 91.824C213.399 91.9093 213.421 92.016 213.421 92.144C213.421 92.4 213.314 92.6347 213.101 92.848C212.887 93.0187 212.674 93.2107 212.461 93.424C211.053 94.7893 209.73 96.1333 208.493 97.456C207.298 98.7787 206.125 100.251 204.973 101.872C205.826 101.915 206.658 101.936 207.469 101.936C208.322 101.893 209.154 101.872 209.965 101.872C210.391 101.872 210.797 101.915 211.181 102C211.607 102.085 211.842 102.299 211.885 102.64C211.885 102.896 211.543 103.088 210.861 103.216C210.178 103.344 209.367 103.451 208.429 103.536C207.49 103.579 206.594 103.621 205.741 103.664C204.887 103.664 204.311 103.664 204.013 103.664C203.501 104.432 202.925 105.413 202.285 106.608C201.687 107.803 201.154 109.019 200.685 110.256C200.258 111.493 200.045 112.581 200.045 113.52C200.045 115.611 200.941 116.656 202.733 116.656C203.97 116.656 205.186 116.379 206.381 115.824C207.575 115.269 208.706 114.587 209.773 113.776C210.882 112.965 211.842 112.176 212.653 111.408C213.463 110.64 214.061 110.064 214.445 109.68C214.615 109.509 214.765 109.424 214.893 109.424C215.063 109.424 215.149 109.552 215.149 109.808C215.149 110.235 215.021 110.576 214.765 110.832C213.527 112.069 212.183 113.285 210.733 114.48C209.282 115.632 207.767 116.571 206.189 117.296C204.653 118.021 203.053 118.384 201.389 118.384ZM219.736 119.536C218.37 119.536 216.877 119.237 215.256 118.64C213.677 118.043 212.312 117.168 211.16 116.016C210.05 114.864 209.495 113.477 209.495 111.856C209.495 111.301 209.602 110.789 209.816 110.32C210.072 109.851 210.541 109.616 211.224 109.616C211.522 109.616 211.885 109.744 212.312 110C212.738 110.213 213.058 110.427 213.272 110.64C214.253 109.744 215.256 108.635 216.28 107.312C217.304 105.947 218.349 104.581 219.416 103.216C220.525 101.851 221.656 100.677 222.808 99.696C224.002 98.672 225.261 98.0533 226.583 97.84C226.712 97.7973 226.946 97.776 227.288 97.776C228.141 97.776 228.952 97.968 229.72 98.352C230.53 98.736 230.829 99.3547 230.616 100.208C230.53 100.592 230.125 100.805 229.4 100.848C228.717 100.891 227.928 100.912 227.032 100.912C226.178 100.912 225.432 101.061 224.792 101.36C224.152 101.659 223.832 102.277 223.832 103.216C223.832 103.557 224.024 104.091 224.408 104.816C224.792 105.541 225.218 106.395 225.688 107.376C226.157 108.315 226.541 109.317 226.84 110.384C227.138 111.451 227.224 112.496 227.096 113.52C227.565 113.563 228.269 113.499 229.208 113.328C230.189 113.115 231.256 112.731 232.408 112.176C233.602 111.579 234.712 110.725 235.736 109.616C235.864 109.488 235.992 109.424 236.12 109.424C236.333 109.424 236.482 109.531 236.568 109.744C236.653 109.957 236.632 110.149 236.504 110.32C236.077 110.875 235.501 111.493 234.776 112.176C234.093 112.859 233.261 113.435 232.28 113.904C231.128 114.459 230.04 114.843 229.016 115.056C227.992 115.227 227.288 115.291 226.904 115.248C226.477 116.741 225.538 117.829 224.088 118.512C222.637 119.195 221.186 119.536 219.736 119.536ZM223.576 113.456V113.264C223.576 112.496 223.384 111.557 223 110.448C222.616 109.339 222.21 108.208 221.784 107.056C221.357 105.861 221.058 104.816 220.888 103.92C219.864 105.243 218.818 106.501 217.752 107.696C216.728 108.891 215.618 110.085 214.424 111.28C215.917 111.835 217.41 112.325 218.904 112.752C220.44 113.136 221.997 113.371 223.576 113.456ZM219.352 117.68C220.077 117.68 220.824 117.467 221.592 117.04C222.36 116.613 223.021 115.931 223.576 114.992C221.869 114.949 220.077 114.757 218.2 114.416C216.322 114.032 214.637 113.413 213.144 112.56C213.229 114.437 213.848 115.76 215 116.528C216.194 117.296 217.645 117.68 219.352 117.68Z" fill="#F97316"/>
<g filter="url(#filter1_d_369_3)">
<rect x="4" y="104" width="68" height="4" fill="#F97316"/>
</g>
<rect x="262" y="104" width="68" height="4" fill="#F97316"/>
<defs>
<filter id="filter0_d_369_3" x="31.0234" y="13.9492" width="250.965" height="61.7539" filterUnits="userSpaceOnUse" color-interpolation-filters="sRGB">
<feFlood flood-opacity="0" result="BackgroundImageFix"/>
<feColorMatrix in="SourceAlpha" type="matrix" values="0 0 0 0 0 0 0 0 0 0 0 0 0 0 0 0 0 0 127 0" result="hardAlpha"/>
<feOffset dy="4"/>
<feGaussianBlur stdDeviation="2"/>
<feComposite in2="hardAlpha" operator="out"/>
<feColorMatrix type="matrix" values="0 0 0 0 0 0 0 0 0 0 0 0 0 0 0 0 0 0 0.25 0"/>
<feBlend mode="normal" in2="BackgroundImageFix" result="effect1_dropShadow_369_3"/>
<feBlend mode="normal" in="SourceGraphic" in2="effect1_dropShadow_369_3" result="shape"/>
</filter>
<filter id="filter1_d_369_3" x="0" y="104" width="76" height="12" filterUnits="userSpaceOnUse" color-interpolation-filters="sRGB">
<feFlood flood-opacity="0" result="BackgroundImageFix"/>
<feColorMatrix in="SourceAlpha" type="matrix" values="0 0 0 0 0 0 0 0 0 0 0 0 0 0 0 0 0 0 127 0" result="hardAlpha"/>
<feOffset dy="4"/>
<feGaussianBlur stdDeviation="2"/>
<feComposite in2="hardAlpha" operator="out"/>
<feColorMatrix type="matrix" values="0 0 0 0 0 0 0 0 0 0 0 0 0 0 0 0 0 0 0.25 0"/>
<feBlend mode="normal" in2="BackgroundImageFix" result="effect1_dropShadow_369_3"/>
<feBlend mode="normal" in="SourceGraphic" in2="effect1_dropShadow_369_3" result="shape"/>
</filter>
</defs>
</svg>
