<svg width="20" height="20" viewBox="0 0 20 20" fill="none" xmlns="http://www.w3.org/2000/svg">
<path d="M13.3398 0.0234375C13.0234 0.109375 3.50388 3.26562 3.38669 3.32812C3.16013 3.44141 2.93356 3.69141 2.80075 3.97656L2.67575 4.23828L2.66403 11.3477C2.65622 16.0273 2.66794 18.5586 2.69138 18.7578C2.71481 18.9297 2.77341 19.1445 2.82809 19.25C2.94528 19.4805 3.25778 19.7773 3.50388 19.8945L3.69138 19.9805H9.99997H16.3086L16.4961 19.8945C16.7422 19.7773 17.0547 19.4805 17.1718 19.25C17.2226 19.1484 17.2812 18.9453 17.3047 18.8008C17.3554 18.4414 17.3554 5.26953 17.3047 4.91016C17.2539 4.56641 17.125 4.32031 16.8789 4.08984C16.5468 3.77734 16.414 3.73828 15.6562 3.71875L15 3.70312V2.58203C15 1.35156 14.9687 1.02734 14.8281 0.75C14.7109 0.515625 14.3906 0.214844 14.1523 0.113281C13.9687 0.0351562 13.5 -0.015625 13.3398 0.0234375ZM13.7422 1.21875C13.7773 1.25391 13.789 1.58984 13.789 2.48828V3.71094L9.85544 3.70703H5.91794L8.16403 2.96484C9.39841 2.55469 11.1132 1.98828 11.9726 1.69922C12.832 1.41406 13.5703 1.17578 13.6172 1.17578C13.6601 1.17188 13.7148 1.19141 13.7422 1.21875ZM16.0859 4.92969C16.1523 4.99609 16.1523 18.7148 16.0859 18.7812C16.0195 18.8477 3.98044 18.8477 3.91403 18.7812C3.84763 18.7148 3.84763 4.99609 3.91403 4.92969C3.98044 4.86328 16.0195 4.86328 16.0859 4.92969Z" fill="white"/>
<path d="M9.82817 6.48438C9.57427 6.5625 9.41411 6.81641 9.41411 7.13672V7.32422L9.07427 7.41406C8.07036 7.67188 7.19927 8.34375 6.69145 9.24609C6.5313 9.53906 6.28911 10.1992 6.28911 10.3594C6.28911 10.4531 6.27349 10.4648 6.0938 10.4883C5.85552 10.5195 5.66802 10.6406 5.57817 10.8203C5.44536 11.082 5.52739 11.3867 5.77739 11.5508L5.9102 11.6406H10H14.0899L14.2227 11.5508C14.6993 11.2344 14.504 10.5703 13.9063 10.4883C13.7266 10.4648 13.711 10.4531 13.711 10.3594C13.711 10.1992 13.4688 9.53906 13.3086 9.24609C12.7891 8.32031 11.8946 7.64453 10.8672 7.39453L10.5938 7.33203L10.5782 7.08203C10.5508 6.64063 10.2071 6.36719 9.82817 6.48438ZM10.6407 8.55469C11.5274 8.78125 12.25 9.48047 12.5196 10.3789L12.543 10.4688H10.004C8.60552 10.4688 7.46099 10.4609 7.46099 10.457C7.46099 10.4492 7.49614 10.3398 7.53911 10.2109C7.80864 9.42969 8.5313 8.76953 9.3438 8.55469C9.73052 8.45313 10.25 8.45313 10.6407 8.55469Z" fill="white"/>
<path d="M6.05469 13.3125C5.83984 13.4297 5.76172 13.5664 5.76172 13.8281C5.76172 14.0899 5.83984 14.2266 6.05469 14.3438C6.18359 14.4102 6.28906 14.4141 7.76172 14.4063C9.27734 14.3945 9.33594 14.3906 9.4375 14.3125C9.63281 14.168 9.70703 14.0313 9.70703 13.8281C9.70703 13.625 9.63281 13.4883 9.4375 13.3438C9.33594 13.2656 9.27734 13.2617 7.76172 13.25C6.28906 13.2422 6.18359 13.2461 6.05469 13.3125Z" fill="white"/>
<path d="M5.97656 15.6602C5.76172 15.7734 5.68359 15.9102 5.68359 16.1719C5.68359 16.4336 5.76172 16.5703 5.97656 16.6836C6.10547 16.7539 6.28906 16.7578 10 16.7578C13.7109 16.7578 13.8945 16.7539 14.0234 16.6836C14.2383 16.5703 14.3164 16.4336 14.3164 16.1719C14.3164 15.9102 14.2383 15.7734 14.0234 15.6602C13.8945 15.5898 13.7109 15.5859 10 15.5859C6.28906 15.5859 6.10547 15.5898 5.97656 15.6602Z" fill="white"/>
</svg>
